<?xml version="1.0" encoding="utf-8"?>
<svg viewBox="-0.184 199.315 500.636 235.445" xmlns="http://www.w3.org/2000/svg">
  <path d="M 0.161 199.658 C 0.161 199.658 1.352 268.058 0.005 313.136 C -0.698 336.655 11.727 353.214 27.571 351.438 C 51.015 348.81 27.821 317.417 43.183 305.866 C 58.545 294.315 70.685 364.272 68.305 380.721 C 65.463 400.326 62.74 430.145 90.201 434.112 C 122.133 438.725 116.51 389.668 116.517 384.248 C 116.525 378.827 105.588 310.164 126.588 298.4 C 144.568 288.328 150.064 295.225 153.404 312.814 C 156.26 327.869 147.853 349.824 149.969 360.046 C 153.309 376.177 190.349 386.896 194.691 360.046 C 197.859 340.463 194.719 340.554 194.771 304.878 C 194.825 269.036 203.471 260.746 209.173 260.746 C 248.988 260.746 205.239 315.498 255.195 310.151 C 286.066 306.849 253.176 227.783 272.265 231.031 C 282.965 232.851 294.561 274.947 294.515 304.878 C 294.475 332.527 294.422 368.026 321.045 360.046 C 349.309 351.574 339.683 312.489 335.753 296.29 C 329.807 271.778 352.692 271.778 358.819 289.67 C 364.945 307.562 343.748 398.153 391.725 398.153 C 430.076 398.153 393.359 304.446 395.721 288.328 C 398.086 272.209 422.696 265.068 422.661 288.328 C 422.488 405.742 473.274 369.983 463.125 319.406 C 459.288 300.287 474.115 307.225 471.357 315.186 C 466.804 328.331 482.378 336.369 490.124 335.611 C 502.709 334.38 499.977 334.209 500.16 200.343" stroke="#6E00FB" stroke-opacity="0.33" style="" transform="matrix(0.999999, -0.00137, 0.00137, 0.999999, -0.434333, 0.34287)"/>
</svg>