<?xml version="1.0" encoding="utf-8"?>
<svg viewBox="0 200 500.636 235.445" xmlns="http://www.w3.org/2000/svg">
  <path d="M 0.345 200.343 C 0.345 200.343 1.536 268.743 0.189 313.821 C -0.514 337.34 11.911 353.899 27.755 352.123 C 51.199 349.495 28.005 318.102 43.367 306.551 C 58.729 295 70.869 364.957 68.489 381.406 C 65.647 401.011 62.924 430.83 90.385 434.797 C 122.317 439.41 116.694 390.353 116.701 384.933 C 116.709 379.512 105.772 310.849 126.772 299.085 C 144.752 289.013 150.248 295.91 153.588 313.499 C 156.444 328.554 148.037 350.509 150.153 360.731 C 153.493 376.862 190.533 387.581 194.875 360.731 C 198.043 341.148 194.903 341.239 194.955 305.563 C 195.009 269.721 203.655 261.431 209.357 261.431 C 249.172 261.431 205.423 316.183 255.379 310.836 C 286.25 307.534 253.36 228.468 272.449 231.716 C 283.149 233.536 294.745 275.632 294.699 305.563 C 294.659 333.212 294.606 368.711 321.229 360.731 C 349.493 352.259 339.867 313.174 335.937 296.975 C 329.991 272.463 352.876 272.463 359.003 290.355 C 365.129 308.247 343.932 398.838 391.909 398.838 C 430.26 398.838 393.543 305.131 395.905 289.013 C 398.27 272.894 422.88 265.753 422.845 289.013 C 422.672 406.427 473.458 370.668 463.309 320.091 C 459.472 300.972 474.299 307.91 471.541 315.871 C 466.988 329.016 482.562 337.054 490.308 336.296 C 502.893 335.065 500.161 334.894 500.344 201.028" stroke="none" style="{{fill:" props.fill}}="" transform="matrix(0.999999, -0.00137, 0.00137, 0.999999, -0.435045, 0.343234)"/>
</svg>